<mxfile host="app.diagrams.net" agent="Mozilla/5.0 (Windows NT 10.0; Win64; x64) AppleWebKit/537.36 (KHTML, like Gecko) Chrome/136.0.0.0 Safari/537.36 Edg/136.0.0.0" version="27.0.1">
  <diagram name="Page-1" id="OIaIxhvdRK2Rwkjt1i3-">
    <mxGraphModel dx="4001" dy="2847" grid="1" gridSize="10" guides="1" tooltips="1" connect="1" arrows="1" fold="1" page="1" pageScale="1" pageWidth="850" pageHeight="1100" math="0" shadow="0">
      <root>
        <mxCell id="0" />
        <mxCell id="1" parent="0" />
        <mxCell id="wTuwIUQlhGzPRE3fNN9T-1" value="library&amp;nbsp;" style="rounded=0;whiteSpace=wrap;html=1;labelBackgroundColor=none;fillColor=#09555B;strokeColor=#BAC8D3;fontColor=#EEEEEE;" vertex="1" parent="1">
          <mxGeometry x="320" y="-190" width="120" height="60" as="geometry" />
        </mxCell>
        <mxCell id="wTuwIUQlhGzPRE3fNN9T-2" value="book" style="rounded=0;whiteSpace=wrap;html=1;labelBackgroundColor=none;fillColor=#09555B;strokeColor=#BAC8D3;fontColor=#EEEEEE;" vertex="1" parent="1">
          <mxGeometry x="320" y="130" width="120" height="60" as="geometry" />
        </mxCell>
        <mxCell id="wTuwIUQlhGzPRE3fNN9T-3" value="staff" style="rounded=0;whiteSpace=wrap;html=1;labelBackgroundColor=none;fillColor=#09555B;strokeColor=#BAC8D3;fontColor=#EEEEEE;" vertex="1" parent="1">
          <mxGeometry x="670" y="130" width="120" height="60" as="geometry" />
        </mxCell>
        <mxCell id="wTuwIUQlhGzPRE3fNN9T-4" value="review&amp;nbsp;" style="rounded=0;whiteSpace=wrap;html=1;labelBackgroundColor=none;fillColor=#09555B;strokeColor=#BAC8D3;fontColor=#EEEEEE;" vertex="1" parent="1">
          <mxGeometry x="320" y="400" width="120" height="60" as="geometry" />
        </mxCell>
        <mxCell id="wTuwIUQlhGzPRE3fNN9T-5" value="loan&amp;nbsp;" style="rounded=0;whiteSpace=wrap;html=1;labelBackgroundColor=none;fillColor=#09555B;strokeColor=#BAC8D3;fontColor=#EEEEEE;" vertex="1" parent="1">
          <mxGeometry x="-150" y="390" width="120" height="60" as="geometry" />
        </mxCell>
        <mxCell id="wTuwIUQlhGzPRE3fNN9T-6" value="Member&amp;nbsp;" style="rounded=0;whiteSpace=wrap;html=1;labelBackgroundColor=none;fillColor=#09555B;strokeColor=#BAC8D3;fontColor=#EEEEEE;" vertex="1" parent="1">
          <mxGeometry x="-150" y="-50" width="120" height="60" as="geometry" />
        </mxCell>
        <mxCell id="wTuwIUQlhGzPRE3fNN9T-8" value="receives&amp;nbsp;" style="rhombus;whiteSpace=wrap;html=1;labelBackgroundColor=none;fillColor=#09555B;strokeColor=#BAC8D3;fontColor=#EEEEEE;" vertex="1" parent="1">
          <mxGeometry x="340" y="250" width="80" height="80" as="geometry" />
        </mxCell>
        <mxCell id="wTuwIUQlhGzPRE3fNN9T-9" value="Payment" style="rounded=0;whiteSpace=wrap;html=1;labelBackgroundColor=none;fillColor=#09555B;strokeColor=#BAC8D3;fontColor=#EEEEEE;" vertex="1" parent="1">
          <mxGeometry x="-150" y="700" width="120" height="60" as="geometry" />
        </mxCell>
        <mxCell id="wTuwIUQlhGzPRE3fNN9T-10" value="payment&amp;nbsp;" style="rounded=0;whiteSpace=wrap;html=1;labelBackgroundColor=none;fillColor=#09555B;strokeColor=#BAC8D3;fontColor=#EEEEEE;" vertex="1" parent="1">
          <mxGeometry x="-145" y="710" width="110" height="40" as="geometry" />
        </mxCell>
        <mxCell id="wTuwIUQlhGzPRE3fNN9T-11" value="" style="endArrow=none;html=1;rounded=0;shape=link;entryX=0.5;entryY=1;entryDx=0;entryDy=0;exitX=0.5;exitY=0;exitDx=0;exitDy=0;labelBackgroundColor=none;fontColor=default;strokeColor=#0B4D6A;" edge="1" parent="1" source="wTuwIUQlhGzPRE3fNN9T-9" target="wTuwIUQlhGzPRE3fNN9T-5">
          <mxGeometry width="50" height="50" relative="1" as="geometry">
            <mxPoint x="400" y="710" as="sourcePoint" />
            <mxPoint x="450" y="660" as="targetPoint" />
          </mxGeometry>
        </mxCell>
        <mxCell id="wTuwIUQlhGzPRE3fNN9T-13" value="CORROSPONDS" style="shape=rhombus;double=1;perimeter=rhombusPerimeter;whiteSpace=wrap;html=1;align=center;labelBackgroundColor=none;fillColor=#09555B;strokeColor=#BAC8D3;fontColor=#EEEEEE;" vertex="1" parent="1">
          <mxGeometry x="-150" y="540" width="130" height="80" as="geometry" />
        </mxCell>
        <mxCell id="wTuwIUQlhGzPRE3fNN9T-14" value="M" style="text;html=1;align=center;verticalAlign=middle;resizable=0;points=[];autosize=1;strokeColor=none;fillColor=none;labelBackgroundColor=none;fontColor=#EEEEEE;" vertex="1" parent="1">
          <mxGeometry x="-85" y="668" width="30" height="30" as="geometry" />
        </mxCell>
        <mxCell id="wTuwIUQlhGzPRE3fNN9T-15" value="1" style="text;html=1;align=center;verticalAlign=middle;resizable=0;points=[];autosize=1;strokeColor=none;fillColor=none;labelBackgroundColor=none;fontColor=#EEEEEE;" vertex="1" parent="1">
          <mxGeometry x="-85" y="450" width="30" height="30" as="geometry" />
        </mxCell>
        <mxCell id="wTuwIUQlhGzPRE3fNN9T-18" value="BORROWS" style="shape=rhombus;perimeter=rhombusPerimeter;whiteSpace=wrap;html=1;align=center;labelBackgroundColor=none;fillColor=#09555B;strokeColor=#BAC8D3;fontColor=#EEEEEE;" vertex="1" parent="1">
          <mxGeometry x="-150" y="180" width="120" height="60" as="geometry" />
        </mxCell>
        <mxCell id="wTuwIUQlhGzPRE3fNN9T-19" value="" style="endArrow=none;html=1;rounded=0;exitX=0.5;exitY=1;exitDx=0;exitDy=0;entryX=0.5;entryY=0;entryDx=0;entryDy=0;labelBackgroundColor=none;fontColor=default;strokeColor=#0B4D6A;" edge="1" parent="1" source="wTuwIUQlhGzPRE3fNN9T-2" target="wTuwIUQlhGzPRE3fNN9T-8">
          <mxGeometry relative="1" as="geometry">
            <mxPoint x="390" y="180" as="sourcePoint" />
            <mxPoint x="550" y="190" as="targetPoint" />
          </mxGeometry>
        </mxCell>
        <mxCell id="wTuwIUQlhGzPRE3fNN9T-20" value="1" style="resizable=0;html=1;whiteSpace=wrap;align=right;verticalAlign=bottom;labelBackgroundColor=none;fillColor=#09555B;strokeColor=#BAC8D3;fontColor=#EEEEEE;" connectable="0" vertex="1" parent="wTuwIUQlhGzPRE3fNN9T-19">
          <mxGeometry x="1" relative="1" as="geometry" />
        </mxCell>
        <mxCell id="wTuwIUQlhGzPRE3fNN9T-21" value="" style="endArrow=none;html=1;rounded=0;exitX=0.5;exitY=1;exitDx=0;exitDy=0;entryX=0.5;entryY=0;entryDx=0;entryDy=0;shape=link;labelBackgroundColor=none;fontColor=default;strokeColor=#0B4D6A;" edge="1" parent="1" source="wTuwIUQlhGzPRE3fNN9T-8" target="wTuwIUQlhGzPRE3fNN9T-4">
          <mxGeometry relative="1" as="geometry">
            <mxPoint x="350" y="360" as="sourcePoint" />
            <mxPoint x="510" y="360" as="targetPoint" />
          </mxGeometry>
        </mxCell>
        <mxCell id="wTuwIUQlhGzPRE3fNN9T-22" value="N" style="resizable=0;html=1;whiteSpace=wrap;align=right;verticalAlign=bottom;labelBackgroundColor=none;fillColor=#09555B;strokeColor=#BAC8D3;fontColor=#EEEEEE;" connectable="0" vertex="1" parent="wTuwIUQlhGzPRE3fNN9T-21">
          <mxGeometry x="1" relative="1" as="geometry" />
        </mxCell>
        <mxCell id="wTuwIUQlhGzPRE3fNN9T-23" value="OWNS" style="shape=rhombus;perimeter=rhombusPerimeter;whiteSpace=wrap;html=1;align=center;labelBackgroundColor=none;fillColor=#09555B;strokeColor=#BAC8D3;fontColor=#EEEEEE;" vertex="1" parent="1">
          <mxGeometry x="320" y="-30" width="120" height="60" as="geometry" />
        </mxCell>
        <mxCell id="wTuwIUQlhGzPRE3fNN9T-24" value="" style="endArrow=none;html=1;rounded=0;entryX=0.5;entryY=1;entryDx=0;entryDy=0;shape=link;labelBackgroundColor=none;fontColor=default;strokeColor=#0B4D6A;" edge="1" parent="1" target="wTuwIUQlhGzPRE3fNN9T-23">
          <mxGeometry relative="1" as="geometry">
            <mxPoint x="380" y="130" as="sourcePoint" />
            <mxPoint x="490" y="300" as="targetPoint" />
          </mxGeometry>
        </mxCell>
        <mxCell id="wTuwIUQlhGzPRE3fNN9T-25" value="N" style="resizable=0;html=1;whiteSpace=wrap;align=right;verticalAlign=bottom;labelBackgroundColor=none;fillColor=#09555B;strokeColor=#BAC8D3;fontColor=#EEEEEE;" connectable="0" vertex="1" parent="wTuwIUQlhGzPRE3fNN9T-24">
          <mxGeometry x="1" relative="1" as="geometry" />
        </mxCell>
        <mxCell id="wTuwIUQlhGzPRE3fNN9T-26" value="" style="endArrow=none;html=1;rounded=0;entryX=0.5;entryY=1;entryDx=0;entryDy=0;exitX=0.5;exitY=0;exitDx=0;exitDy=0;labelBackgroundColor=none;fontColor=default;strokeColor=#0B4D6A;" edge="1" parent="1" source="wTuwIUQlhGzPRE3fNN9T-23" target="wTuwIUQlhGzPRE3fNN9T-1">
          <mxGeometry relative="1" as="geometry">
            <mxPoint x="340" y="80" as="sourcePoint" />
            <mxPoint x="500" y="80" as="targetPoint" />
          </mxGeometry>
        </mxCell>
        <mxCell id="wTuwIUQlhGzPRE3fNN9T-27" value="1" style="resizable=0;html=1;whiteSpace=wrap;align=right;verticalAlign=bottom;labelBackgroundColor=none;fillColor=#09555B;strokeColor=#BAC8D3;fontColor=#EEEEEE;" connectable="0" vertex="1" parent="wTuwIUQlhGzPRE3fNN9T-26">
          <mxGeometry x="1" relative="1" as="geometry" />
        </mxCell>
        <mxCell id="wTuwIUQlhGzPRE3fNN9T-28" value="WORKS AT" style="shape=rhombus;perimeter=rhombusPerimeter;whiteSpace=wrap;html=1;align=center;labelBackgroundColor=none;fillColor=#09555B;strokeColor=#BAC8D3;fontColor=#EEEEEE;" vertex="1" parent="1">
          <mxGeometry x="670" y="-30" width="120" height="60" as="geometry" />
        </mxCell>
        <mxCell id="wTuwIUQlhGzPRE3fNN9T-29" value="" style="endArrow=none;html=1;rounded=0;entryX=0.5;entryY=1;entryDx=0;entryDy=0;exitX=0.5;exitY=0;exitDx=0;exitDy=0;shape=link;labelBackgroundColor=none;fontColor=default;strokeColor=#0B4D6A;" edge="1" parent="1" source="wTuwIUQlhGzPRE3fNN9T-3" target="wTuwIUQlhGzPRE3fNN9T-28">
          <mxGeometry relative="1" as="geometry">
            <mxPoint x="240" y="300" as="sourcePoint" />
            <mxPoint x="400" y="300" as="targetPoint" />
          </mxGeometry>
        </mxCell>
        <mxCell id="wTuwIUQlhGzPRE3fNN9T-30" value="N" style="resizable=0;html=1;whiteSpace=wrap;align=right;verticalAlign=bottom;labelBackgroundColor=none;fillColor=#09555B;strokeColor=#BAC8D3;fontColor=#EEEEEE;" connectable="0" vertex="1" parent="wTuwIUQlhGzPRE3fNN9T-29">
          <mxGeometry x="1" relative="1" as="geometry" />
        </mxCell>
        <mxCell id="wTuwIUQlhGzPRE3fNN9T-31" value="" style="endArrow=none;html=1;rounded=0;entryX=1;entryY=0.5;entryDx=0;entryDy=0;exitX=0.5;exitY=0;exitDx=0;exitDy=0;shape=link;labelBackgroundColor=none;fontColor=default;strokeColor=#0B4D6A;" edge="1" parent="1" source="wTuwIUQlhGzPRE3fNN9T-28" target="wTuwIUQlhGzPRE3fNN9T-1">
          <mxGeometry relative="1" as="geometry">
            <mxPoint x="240" y="300" as="sourcePoint" />
            <mxPoint x="400" y="300" as="targetPoint" />
          </mxGeometry>
        </mxCell>
        <mxCell id="wTuwIUQlhGzPRE3fNN9T-32" value="1" style="resizable=0;html=1;whiteSpace=wrap;align=right;verticalAlign=bottom;labelBackgroundColor=none;fillColor=#09555B;strokeColor=#BAC8D3;fontColor=#EEEEEE;" connectable="0" vertex="1" parent="wTuwIUQlhGzPRE3fNN9T-31">
          <mxGeometry x="1" relative="1" as="geometry" />
        </mxCell>
        <mxCell id="wTuwIUQlhGzPRE3fNN9T-33" value="WRITES" style="shape=rhombus;perimeter=rhombusPerimeter;whiteSpace=wrap;html=1;align=center;labelBackgroundColor=none;fillColor=#09555B;strokeColor=#BAC8D3;fontColor=#EEEEEE;" vertex="1" parent="1">
          <mxGeometry x="90" y="180" width="120" height="60" as="geometry" />
        </mxCell>
        <mxCell id="wTuwIUQlhGzPRE3fNN9T-34" value="" style="endArrow=none;html=1;rounded=0;exitX=1;exitY=1;exitDx=0;exitDy=0;entryX=0;entryY=0;entryDx=0;entryDy=0;labelBackgroundColor=none;fontColor=default;strokeColor=#0B4D6A;" edge="1" parent="1" source="wTuwIUQlhGzPRE3fNN9T-6" target="wTuwIUQlhGzPRE3fNN9T-33">
          <mxGeometry relative="1" as="geometry">
            <mxPoint x="230" y="100" as="sourcePoint" />
            <mxPoint x="390" y="100" as="targetPoint" />
          </mxGeometry>
        </mxCell>
        <mxCell id="wTuwIUQlhGzPRE3fNN9T-35" value="1" style="resizable=0;html=1;whiteSpace=wrap;align=right;verticalAlign=bottom;labelBackgroundColor=none;fillColor=#09555B;strokeColor=#BAC8D3;fontColor=#EEEEEE;" connectable="0" vertex="1" parent="wTuwIUQlhGzPRE3fNN9T-34">
          <mxGeometry x="1" relative="1" as="geometry" />
        </mxCell>
        <mxCell id="wTuwIUQlhGzPRE3fNN9T-36" value="" style="endArrow=none;html=1;rounded=0;entryX=0;entryY=0.5;entryDx=0;entryDy=0;exitX=1;exitY=1;exitDx=0;exitDy=0;shape=link;labelBackgroundColor=none;fontColor=default;strokeColor=#0B4D6A;" edge="1" parent="1" source="wTuwIUQlhGzPRE3fNN9T-33" target="wTuwIUQlhGzPRE3fNN9T-4">
          <mxGeometry relative="1" as="geometry">
            <mxPoint x="230" y="100" as="sourcePoint" />
            <mxPoint x="390" y="100" as="targetPoint" />
          </mxGeometry>
        </mxCell>
        <mxCell id="wTuwIUQlhGzPRE3fNN9T-37" value="N" style="resizable=0;html=1;whiteSpace=wrap;align=right;verticalAlign=bottom;labelBackgroundColor=none;fillColor=#09555B;strokeColor=#BAC8D3;fontColor=#EEEEEE;" connectable="0" vertex="1" parent="wTuwIUQlhGzPRE3fNN9T-36">
          <mxGeometry x="1" relative="1" as="geometry" />
        </mxCell>
        <mxCell id="wTuwIUQlhGzPRE3fNN9T-38" value="" style="endArrow=none;html=1;rounded=0;entryX=0.5;entryY=1;entryDx=0;entryDy=0;labelBackgroundColor=none;fontColor=default;strokeColor=#0B4D6A;" edge="1" parent="1" source="wTuwIUQlhGzPRE3fNN9T-18" target="wTuwIUQlhGzPRE3fNN9T-6">
          <mxGeometry relative="1" as="geometry">
            <mxPoint x="230" y="240" as="sourcePoint" />
            <mxPoint x="390" y="240" as="targetPoint" />
          </mxGeometry>
        </mxCell>
        <mxCell id="wTuwIUQlhGzPRE3fNN9T-39" value="1" style="resizable=0;html=1;whiteSpace=wrap;align=right;verticalAlign=bottom;labelBackgroundColor=none;fillColor=#09555B;strokeColor=#BAC8D3;fontColor=#EEEEEE;" connectable="0" vertex="1" parent="wTuwIUQlhGzPRE3fNN9T-38">
          <mxGeometry x="1" relative="1" as="geometry" />
        </mxCell>
        <mxCell id="wTuwIUQlhGzPRE3fNN9T-40" value="" style="endArrow=none;html=1;rounded=0;entryX=0.5;entryY=1;entryDx=0;entryDy=0;exitX=0.5;exitY=0;exitDx=0;exitDy=0;shape=link;labelBackgroundColor=none;fontColor=default;strokeColor=#0B4D6A;" edge="1" parent="1" source="wTuwIUQlhGzPRE3fNN9T-5" target="wTuwIUQlhGzPRE3fNN9T-18">
          <mxGeometry relative="1" as="geometry">
            <mxPoint x="230" y="240" as="sourcePoint" />
            <mxPoint x="390" y="240" as="targetPoint" />
          </mxGeometry>
        </mxCell>
        <mxCell id="wTuwIUQlhGzPRE3fNN9T-41" value="N" style="resizable=0;html=1;whiteSpace=wrap;align=right;verticalAlign=bottom;labelBackgroundColor=none;fillColor=#09555B;strokeColor=#BAC8D3;fontColor=#EEEEEE;" connectable="0" vertex="1" parent="wTuwIUQlhGzPRE3fNN9T-40">
          <mxGeometry x="1" relative="1" as="geometry" />
        </mxCell>
        <mxCell id="wTuwIUQlhGzPRE3fNN9T-42" value="BORROWED IN" style="shape=rhombus;perimeter=rhombusPerimeter;whiteSpace=wrap;html=1;align=center;labelBackgroundColor=none;fillColor=#09555B;strokeColor=#BAC8D3;fontColor=#EEEEEE;" vertex="1" parent="1">
          <mxGeometry x="60" y="400" width="120" height="60" as="geometry" />
        </mxCell>
        <mxCell id="wTuwIUQlhGzPRE3fNN9T-43" value="" style="shape=link;html=1;rounded=0;exitX=1;exitY=0.5;exitDx=0;exitDy=0;entryX=0;entryY=0.5;entryDx=0;entryDy=0;labelBackgroundColor=none;fontColor=default;strokeColor=#0B4D6A;" edge="1" parent="1" source="wTuwIUQlhGzPRE3fNN9T-5" target="wTuwIUQlhGzPRE3fNN9T-42">
          <mxGeometry relative="1" as="geometry">
            <mxPoint x="230" y="240" as="sourcePoint" />
            <mxPoint x="390" y="240" as="targetPoint" />
          </mxGeometry>
        </mxCell>
        <mxCell id="wTuwIUQlhGzPRE3fNN9T-44" value="N" style="resizable=0;html=1;whiteSpace=wrap;align=right;verticalAlign=bottom;labelBackgroundColor=none;fillColor=#09555B;strokeColor=#BAC8D3;fontColor=#EEEEEE;" connectable="0" vertex="1" parent="wTuwIUQlhGzPRE3fNN9T-43">
          <mxGeometry x="1" relative="1" as="geometry" />
        </mxCell>
        <mxCell id="wTuwIUQlhGzPRE3fNN9T-45" value="" style="endArrow=none;html=1;rounded=0;entryX=0;entryY=0.5;entryDx=0;entryDy=0;exitX=1;exitY=0.5;exitDx=0;exitDy=0;labelBackgroundColor=none;fontColor=default;strokeColor=#0B4D6A;" edge="1" parent="1" source="wTuwIUQlhGzPRE3fNN9T-42" target="wTuwIUQlhGzPRE3fNN9T-2">
          <mxGeometry relative="1" as="geometry">
            <mxPoint x="230" y="240" as="sourcePoint" />
            <mxPoint x="390" y="240" as="targetPoint" />
          </mxGeometry>
        </mxCell>
        <mxCell id="wTuwIUQlhGzPRE3fNN9T-46" value="1" style="resizable=0;html=1;whiteSpace=wrap;align=right;verticalAlign=bottom;labelBackgroundColor=none;fillColor=#09555B;strokeColor=#BAC8D3;fontColor=#EEEEEE;" connectable="0" vertex="1" parent="wTuwIUQlhGzPRE3fNN9T-45">
          <mxGeometry x="1" relative="1" as="geometry" />
        </mxCell>
        <mxCell id="wTuwIUQlhGzPRE3fNN9T-49" value="PAYMENT_ID" style="ellipse;whiteSpace=wrap;html=1;align=center;fontStyle=4;labelBackgroundColor=none;fillColor=#09555B;strokeColor=#BAC8D3;fontColor=#EEEEEE;" vertex="1" parent="1">
          <mxGeometry x="-390" y="800" width="100" height="40" as="geometry" />
        </mxCell>
        <mxCell id="wTuwIUQlhGzPRE3fNN9T-50" value="AMOUNT" style="ellipse;whiteSpace=wrap;html=1;align=center;labelBackgroundColor=none;fillColor=#09555B;strokeColor=#BAC8D3;fontColor=#EEEEEE;" vertex="1" parent="1">
          <mxGeometry x="-250" y="860" width="100" height="40" as="geometry" />
        </mxCell>
        <mxCell id="wTuwIUQlhGzPRE3fNN9T-51" value="PAYMENTDATE" style="ellipse;whiteSpace=wrap;html=1;align=center;labelBackgroundColor=none;fillColor=#09555B;strokeColor=#BAC8D3;fontColor=#EEEEEE;" vertex="1" parent="1">
          <mxGeometry x="-80" y="870" width="100" height="40" as="geometry" />
        </mxCell>
        <mxCell id="wTuwIUQlhGzPRE3fNN9T-52" value="METHOD" style="ellipse;whiteSpace=wrap;html=1;align=center;labelBackgroundColor=none;fillColor=#09555B;strokeColor=#BAC8D3;fontColor=#EEEEEE;" vertex="1" parent="1">
          <mxGeometry x="-425" y="710" width="100" height="40" as="geometry" />
        </mxCell>
        <mxCell id="wTuwIUQlhGzPRE3fNN9T-53" value="&lt;span style=&quot;border-bottom: 1px dotted&quot;&gt;LOAN_ID&lt;/span&gt;" style="ellipse;whiteSpace=wrap;html=1;align=center;labelBackgroundColor=none;fillColor=#09555B;strokeColor=#BAC8D3;fontColor=#EEEEEE;" vertex="1" parent="1">
          <mxGeometry x="-10" y="790" width="100" height="40" as="geometry" />
        </mxCell>
        <mxCell id="wTuwIUQlhGzPRE3fNN9T-54" value="" style="endArrow=none;html=1;rounded=0;entryX=1;entryY=0.5;entryDx=0;entryDy=0;exitX=0;exitY=0.5;exitDx=0;exitDy=0;labelBackgroundColor=none;fontColor=default;strokeColor=#0B4D6A;" edge="1" parent="1" source="wTuwIUQlhGzPRE3fNN9T-9" target="wTuwIUQlhGzPRE3fNN9T-52">
          <mxGeometry width="50" height="50" relative="1" as="geometry">
            <mxPoint x="280" y="560" as="sourcePoint" />
            <mxPoint x="330" y="510" as="targetPoint" />
          </mxGeometry>
        </mxCell>
        <mxCell id="wTuwIUQlhGzPRE3fNN9T-55" value="" style="endArrow=none;html=1;rounded=0;entryX=0;entryY=1;entryDx=0;entryDy=0;exitX=1;exitY=0.5;exitDx=0;exitDy=0;labelBackgroundColor=none;fontColor=default;strokeColor=#0B4D6A;" edge="1" parent="1" source="wTuwIUQlhGzPRE3fNN9T-49" target="wTuwIUQlhGzPRE3fNN9T-9">
          <mxGeometry width="50" height="50" relative="1" as="geometry">
            <mxPoint x="110" y="640" as="sourcePoint" />
            <mxPoint x="160" y="590" as="targetPoint" />
          </mxGeometry>
        </mxCell>
        <mxCell id="wTuwIUQlhGzPRE3fNN9T-56" value="" style="endArrow=none;html=1;rounded=0;entryX=0.5;entryY=0;entryDx=0;entryDy=0;exitX=0.5;exitY=1;exitDx=0;exitDy=0;labelBackgroundColor=none;fontColor=default;strokeColor=#0B4D6A;" edge="1" parent="1" source="wTuwIUQlhGzPRE3fNN9T-9" target="wTuwIUQlhGzPRE3fNN9T-50">
          <mxGeometry width="50" height="50" relative="1" as="geometry">
            <mxPoint x="110" y="640" as="sourcePoint" />
            <mxPoint x="160" y="590" as="targetPoint" />
          </mxGeometry>
        </mxCell>
        <mxCell id="wTuwIUQlhGzPRE3fNN9T-57" value="" style="endArrow=none;html=1;rounded=0;entryX=0.75;entryY=1;entryDx=0;entryDy=0;exitX=0.5;exitY=0;exitDx=0;exitDy=0;labelBackgroundColor=none;fontColor=default;strokeColor=#0B4D6A;" edge="1" parent="1" source="wTuwIUQlhGzPRE3fNN9T-51" target="wTuwIUQlhGzPRE3fNN9T-9">
          <mxGeometry width="50" height="50" relative="1" as="geometry">
            <mxPoint x="110" y="640" as="sourcePoint" />
            <mxPoint x="160" y="590" as="targetPoint" />
          </mxGeometry>
        </mxCell>
        <mxCell id="wTuwIUQlhGzPRE3fNN9T-58" value="" style="endArrow=none;html=1;rounded=0;entryX=0.99;entryY=0.597;entryDx=0;entryDy=0;entryPerimeter=0;exitX=0.5;exitY=0;exitDx=0;exitDy=0;labelBackgroundColor=none;fontColor=default;strokeColor=#0B4D6A;" edge="1" parent="1" source="wTuwIUQlhGzPRE3fNN9T-53" target="wTuwIUQlhGzPRE3fNN9T-9">
          <mxGeometry width="50" height="50" relative="1" as="geometry">
            <mxPoint x="110" y="640" as="sourcePoint" />
            <mxPoint x="160" y="590" as="targetPoint" />
          </mxGeometry>
        </mxCell>
        <mxCell id="wTuwIUQlhGzPRE3fNN9T-59" value="" style="endArrow=none;html=1;rounded=0;exitX=0.089;exitY=0.803;exitDx=0;exitDy=0;exitPerimeter=0;entryX=1;entryY=1;entryDx=0;entryDy=0;labelBackgroundColor=none;fontColor=default;strokeColor=#0B4D6A;" edge="1" parent="1" source="wTuwIUQlhGzPRE3fNN9T-53" target="wTuwIUQlhGzPRE3fNN9T-53">
          <mxGeometry relative="1" as="geometry">
            <mxPoint y="500" as="sourcePoint" />
            <mxPoint x="160" y="500" as="targetPoint" />
          </mxGeometry>
        </mxCell>
        <mxCell id="wTuwIUQlhGzPRE3fNN9T-60" value="LOAN_ID" style="ellipse;whiteSpace=wrap;html=1;align=center;fontStyle=4;labelBackgroundColor=none;fillColor=#09555B;strokeColor=#BAC8D3;fontColor=#EEEEEE;" vertex="1" parent="1">
          <mxGeometry x="-520" y="370" width="100" height="40" as="geometry" />
        </mxCell>
        <mxCell id="wTuwIUQlhGzPRE3fNN9T-61" value="&lt;span style=&quot;border-bottom: 1px dotted&quot;&gt;BOOK_ID&lt;/span&gt;" style="ellipse;whiteSpace=wrap;html=1;align=center;labelBackgroundColor=none;fillColor=#09555B;strokeColor=#BAC8D3;fontColor=#EEEEEE;" vertex="1" parent="1">
          <mxGeometry x="-490" y="440" width="100" height="40" as="geometry" />
        </mxCell>
        <mxCell id="wTuwIUQlhGzPRE3fNN9T-62" value="&lt;span style=&quot;border-bottom: 1px dotted&quot;&gt;MEMBER_ID&lt;/span&gt;" style="ellipse;whiteSpace=wrap;html=1;align=center;labelBackgroundColor=none;fillColor=#09555B;strokeColor=#BAC8D3;fontColor=#EEEEEE;" vertex="1" parent="1">
          <mxGeometry x="-510" y="500" width="100" height="40" as="geometry" />
        </mxCell>
        <mxCell id="wTuwIUQlhGzPRE3fNN9T-63" value="LOANDATE" style="ellipse;whiteSpace=wrap;html=1;align=center;labelBackgroundColor=none;fillColor=#09555B;strokeColor=#BAC8D3;fontColor=#EEEEEE;" vertex="1" parent="1">
          <mxGeometry x="-390" y="340" width="100" height="40" as="geometry" />
        </mxCell>
        <mxCell id="wTuwIUQlhGzPRE3fNN9T-64" value="DUEDATE" style="ellipse;whiteSpace=wrap;html=1;align=center;labelBackgroundColor=none;fillColor=#09555B;strokeColor=#BAC8D3;fontColor=#EEEEEE;" vertex="1" parent="1">
          <mxGeometry x="-480" y="580" width="100" height="40" as="geometry" />
        </mxCell>
        <mxCell id="wTuwIUQlhGzPRE3fNN9T-65" value="RETURNDATE" style="ellipse;whiteSpace=wrap;html=1;align=center;labelBackgroundColor=none;fillColor=#09555B;strokeColor=#BAC8D3;fontColor=#EEEEEE;" vertex="1" parent="1">
          <mxGeometry x="-330" y="590" width="100" height="40" as="geometry" />
        </mxCell>
        <mxCell id="wTuwIUQlhGzPRE3fNN9T-66" value="STATUS" style="ellipse;whiteSpace=wrap;html=1;align=center;labelBackgroundColor=none;fillColor=#09555B;strokeColor=#BAC8D3;fontColor=#EEEEEE;" vertex="1" parent="1">
          <mxGeometry x="-260" y="340" width="100" height="40" as="geometry" />
        </mxCell>
        <mxCell id="wTuwIUQlhGzPRE3fNN9T-68" value="" style="endArrow=none;html=1;rounded=0;entryX=1;entryY=1;entryDx=0;entryDy=0;exitX=0;exitY=0.5;exitDx=0;exitDy=0;labelBackgroundColor=none;fontColor=default;strokeColor=#0B4D6A;" edge="1" parent="1" source="wTuwIUQlhGzPRE3fNN9T-5" target="wTuwIUQlhGzPRE3fNN9T-63">
          <mxGeometry width="50" height="50" relative="1" as="geometry">
            <mxPoint x="90" y="340" as="sourcePoint" />
            <mxPoint x="140" y="290" as="targetPoint" />
          </mxGeometry>
        </mxCell>
        <mxCell id="wTuwIUQlhGzPRE3fNN9T-69" value="" style="endArrow=none;html=1;rounded=0;entryX=1;entryY=0.5;entryDx=0;entryDy=0;exitX=0;exitY=1;exitDx=0;exitDy=0;labelBackgroundColor=none;fontColor=default;strokeColor=#0B4D6A;" edge="1" parent="1" source="wTuwIUQlhGzPRE3fNN9T-5" target="wTuwIUQlhGzPRE3fNN9T-60">
          <mxGeometry width="50" height="50" relative="1" as="geometry">
            <mxPoint x="90" y="340" as="sourcePoint" />
            <mxPoint x="140" y="290" as="targetPoint" />
          </mxGeometry>
        </mxCell>
        <mxCell id="wTuwIUQlhGzPRE3fNN9T-70" value="" style="endArrow=none;html=1;rounded=0;entryX=1;entryY=0.5;entryDx=0;entryDy=0;exitX=0;exitY=0.75;exitDx=0;exitDy=0;labelBackgroundColor=none;fontColor=default;strokeColor=#0B4D6A;" edge="1" parent="1" source="wTuwIUQlhGzPRE3fNN9T-5" target="wTuwIUQlhGzPRE3fNN9T-61">
          <mxGeometry width="50" height="50" relative="1" as="geometry">
            <mxPoint x="90" y="340" as="sourcePoint" />
            <mxPoint x="140" y="290" as="targetPoint" />
          </mxGeometry>
        </mxCell>
        <mxCell id="wTuwIUQlhGzPRE3fNN9T-71" value="" style="endArrow=none;html=1;rounded=0;entryX=1;entryY=0.5;entryDx=0;entryDy=0;exitX=0.25;exitY=1;exitDx=0;exitDy=0;labelBackgroundColor=none;fontColor=default;strokeColor=#0B4D6A;" edge="1" parent="1" source="wTuwIUQlhGzPRE3fNN9T-5" target="wTuwIUQlhGzPRE3fNN9T-62">
          <mxGeometry width="50" height="50" relative="1" as="geometry">
            <mxPoint x="90" y="340" as="sourcePoint" />
            <mxPoint x="140" y="290" as="targetPoint" />
          </mxGeometry>
        </mxCell>
        <mxCell id="wTuwIUQlhGzPRE3fNN9T-72" value="" style="endArrow=none;html=1;rounded=0;entryX=1;entryY=0.5;entryDx=0;entryDy=0;labelBackgroundColor=none;fontColor=default;strokeColor=#0B4D6A;" edge="1" parent="1" source="wTuwIUQlhGzPRE3fNN9T-5" target="wTuwIUQlhGzPRE3fNN9T-66">
          <mxGeometry width="50" height="50" relative="1" as="geometry">
            <mxPoint x="90" y="340" as="sourcePoint" />
            <mxPoint x="140" y="290" as="targetPoint" />
          </mxGeometry>
        </mxCell>
        <mxCell id="wTuwIUQlhGzPRE3fNN9T-73" value="" style="endArrow=none;html=1;rounded=0;entryX=0.983;entryY=0.211;entryDx=0;entryDy=0;entryPerimeter=0;exitX=0.5;exitY=1;exitDx=0;exitDy=0;labelBackgroundColor=none;fontColor=default;strokeColor=#0B4D6A;" edge="1" parent="1" source="wTuwIUQlhGzPRE3fNN9T-5" target="wTuwIUQlhGzPRE3fNN9T-64">
          <mxGeometry width="50" height="50" relative="1" as="geometry">
            <mxPoint x="90" y="340" as="sourcePoint" />
            <mxPoint x="140" y="290" as="targetPoint" />
          </mxGeometry>
        </mxCell>
        <mxCell id="wTuwIUQlhGzPRE3fNN9T-74" value="" style="endArrow=none;html=1;rounded=0;entryX=0.5;entryY=0;entryDx=0;entryDy=0;exitX=0.5;exitY=1;exitDx=0;exitDy=0;labelBackgroundColor=none;fontColor=default;strokeColor=#0B4D6A;" edge="1" parent="1" source="wTuwIUQlhGzPRE3fNN9T-5" target="wTuwIUQlhGzPRE3fNN9T-65">
          <mxGeometry width="50" height="50" relative="1" as="geometry">
            <mxPoint x="90" y="340" as="sourcePoint" />
            <mxPoint x="140" y="290" as="targetPoint" />
          </mxGeometry>
        </mxCell>
        <mxCell id="wTuwIUQlhGzPRE3fNN9T-75" value="" style="endArrow=none;html=1;rounded=0;entryX=0;entryY=1;entryDx=0;entryDy=0;exitX=1;exitY=1;exitDx=0;exitDy=0;labelBackgroundColor=none;fontColor=default;strokeColor=#0B4D6A;" edge="1" parent="1" source="wTuwIUQlhGzPRE3fNN9T-62" target="wTuwIUQlhGzPRE3fNN9T-62">
          <mxGeometry width="50" height="50" relative="1" as="geometry">
            <mxPoint x="-110" y="390" as="sourcePoint" />
            <mxPoint x="-60" y="340" as="targetPoint" />
          </mxGeometry>
        </mxCell>
        <mxCell id="wTuwIUQlhGzPRE3fNN9T-76" value="" style="endArrow=none;html=1;rounded=0;entryX=0;entryY=1;entryDx=0;entryDy=0;exitX=1;exitY=1;exitDx=0;exitDy=0;labelBackgroundColor=none;fontColor=default;strokeColor=#0B4D6A;" edge="1" parent="1" source="wTuwIUQlhGzPRE3fNN9T-61" target="wTuwIUQlhGzPRE3fNN9T-61">
          <mxGeometry width="50" height="50" relative="1" as="geometry">
            <mxPoint x="-110" y="390" as="sourcePoint" />
            <mxPoint x="-60" y="340" as="targetPoint" />
          </mxGeometry>
        </mxCell>
        <mxCell id="wTuwIUQlhGzPRE3fNN9T-77" value="MEMEBERID" style="ellipse;whiteSpace=wrap;html=1;align=center;fontStyle=4;labelBackgroundColor=none;fillColor=#09555B;strokeColor=#BAC8D3;fontColor=#EEEEEE;" vertex="1" parent="1">
          <mxGeometry x="-380" y="-110" width="100" height="40" as="geometry" />
        </mxCell>
        <mxCell id="wTuwIUQlhGzPRE3fNN9T-78" value="EMAIL" style="ellipse;whiteSpace=wrap;html=1;align=center;labelBackgroundColor=none;fillColor=#09555B;strokeColor=#BAC8D3;fontColor=#EEEEEE;" vertex="1" parent="1">
          <mxGeometry x="-440" y="80" width="100" height="40" as="geometry" />
        </mxCell>
        <mxCell id="wTuwIUQlhGzPRE3fNN9T-79" value="FULLNAME" style="ellipse;whiteSpace=wrap;html=1;align=center;labelBackgroundColor=none;fillColor=#09555B;strokeColor=#BAC8D3;fontColor=#EEEEEE;" vertex="1" parent="1">
          <mxGeometry x="-500" y="-20" width="100" height="40" as="geometry" />
        </mxCell>
        <mxCell id="wTuwIUQlhGzPRE3fNN9T-80" value="PHONE" style="ellipse;whiteSpace=wrap;html=1;align=center;labelBackgroundColor=none;fillColor=#09555B;strokeColor=#BAC8D3;fontColor=#EEEEEE;" vertex="1" parent="1">
          <mxGeometry x="-320" y="120" width="100" height="40" as="geometry" />
        </mxCell>
        <mxCell id="wTuwIUQlhGzPRE3fNN9T-81" value="MEMBERSHIPSTARTDATE" style="ellipse;whiteSpace=wrap;html=1;align=center;labelBackgroundColor=none;fillColor=#09555B;strokeColor=#BAC8D3;fontColor=#EEEEEE;" vertex="1" parent="1">
          <mxGeometry x="-230" y="-160" width="180" height="60" as="geometry" />
        </mxCell>
        <mxCell id="wTuwIUQlhGzPRE3fNN9T-82" value="" style="endArrow=none;html=1;rounded=0;entryX=0.567;entryY=0.972;entryDx=0;entryDy=0;entryPerimeter=0;exitX=0.5;exitY=0;exitDx=0;exitDy=0;labelBackgroundColor=none;fontColor=default;strokeColor=#0B4D6A;" edge="1" parent="1" source="wTuwIUQlhGzPRE3fNN9T-6" target="wTuwIUQlhGzPRE3fNN9T-81">
          <mxGeometry width="50" height="50" relative="1" as="geometry">
            <mxPoint x="40" y="300" as="sourcePoint" />
            <mxPoint x="90" y="250" as="targetPoint" />
          </mxGeometry>
        </mxCell>
        <mxCell id="wTuwIUQlhGzPRE3fNN9T-83" value="" style="endArrow=none;html=1;rounded=0;entryX=1;entryY=0.5;entryDx=0;entryDy=0;exitX=0;exitY=0.25;exitDx=0;exitDy=0;labelBackgroundColor=none;fontColor=default;strokeColor=#0B4D6A;" edge="1" parent="1" source="wTuwIUQlhGzPRE3fNN9T-6" target="wTuwIUQlhGzPRE3fNN9T-77">
          <mxGeometry width="50" height="50" relative="1" as="geometry">
            <mxPoint x="40" y="300" as="sourcePoint" />
            <mxPoint x="90" y="250" as="targetPoint" />
          </mxGeometry>
        </mxCell>
        <mxCell id="wTuwIUQlhGzPRE3fNN9T-84" value="" style="endArrow=none;html=1;rounded=0;entryX=1;entryY=0.5;entryDx=0;entryDy=0;exitX=0;exitY=0.75;exitDx=0;exitDy=0;labelBackgroundColor=none;fontColor=default;strokeColor=#0B4D6A;" edge="1" parent="1" source="wTuwIUQlhGzPRE3fNN9T-6" target="wTuwIUQlhGzPRE3fNN9T-79">
          <mxGeometry width="50" height="50" relative="1" as="geometry">
            <mxPoint x="40" y="300" as="sourcePoint" />
            <mxPoint x="90" y="250" as="targetPoint" />
          </mxGeometry>
        </mxCell>
        <mxCell id="wTuwIUQlhGzPRE3fNN9T-85" value="" style="endArrow=none;html=1;rounded=0;entryX=1;entryY=0;entryDx=0;entryDy=0;exitX=0;exitY=1;exitDx=0;exitDy=0;labelBackgroundColor=none;fontColor=default;strokeColor=#0B4D6A;" edge="1" parent="1" source="wTuwIUQlhGzPRE3fNN9T-6" target="wTuwIUQlhGzPRE3fNN9T-78">
          <mxGeometry width="50" height="50" relative="1" as="geometry">
            <mxPoint x="40" y="300" as="sourcePoint" />
            <mxPoint x="90" y="250" as="targetPoint" />
          </mxGeometry>
        </mxCell>
        <mxCell id="wTuwIUQlhGzPRE3fNN9T-86" value="" style="endArrow=none;html=1;rounded=0;entryX=0.5;entryY=0;entryDx=0;entryDy=0;exitX=0.25;exitY=1;exitDx=0;exitDy=0;labelBackgroundColor=none;fontColor=default;strokeColor=#0B4D6A;" edge="1" parent="1" source="wTuwIUQlhGzPRE3fNN9T-6" target="wTuwIUQlhGzPRE3fNN9T-80">
          <mxGeometry width="50" height="50" relative="1" as="geometry">
            <mxPoint x="40" y="300" as="sourcePoint" />
            <mxPoint x="90" y="250" as="targetPoint" />
          </mxGeometry>
        </mxCell>
        <mxCell id="wTuwIUQlhGzPRE3fNN9T-87" value="REVIEWID" style="ellipse;whiteSpace=wrap;html=1;align=center;fontStyle=4;labelBackgroundColor=none;fillColor=#09555B;strokeColor=#BAC8D3;fontColor=#EEEEEE;" vertex="1" parent="1">
          <mxGeometry x="330" y="600" width="100" height="40" as="geometry" />
        </mxCell>
        <mxCell id="wTuwIUQlhGzPRE3fNN9T-89" value="&lt;span style=&quot;border-bottom: 1px dotted&quot;&gt;BOOKID&lt;/span&gt;" style="ellipse;whiteSpace=wrap;html=1;align=center;labelBackgroundColor=none;fillColor=#09555B;strokeColor=#BAC8D3;fontColor=#EEEEEE;" vertex="1" parent="1">
          <mxGeometry x="490" y="550" width="100" height="40" as="geometry" />
        </mxCell>
        <mxCell id="wTuwIUQlhGzPRE3fNN9T-90" value="&lt;span style=&quot;border-bottom: 1px dotted&quot;&gt;MEMEBRID&lt;/span&gt;" style="ellipse;whiteSpace=wrap;html=1;align=center;labelBackgroundColor=none;fillColor=#09555B;strokeColor=#BAC8D3;fontColor=#EEEEEE;" vertex="1" parent="1">
          <mxGeometry x="390" y="510" width="100" height="40" as="geometry" />
        </mxCell>
        <mxCell id="wTuwIUQlhGzPRE3fNN9T-91" value="COMMENT" style="ellipse;whiteSpace=wrap;html=1;align=center;labelBackgroundColor=none;fillColor=#09555B;strokeColor=#BAC8D3;fontColor=#EEEEEE;" vertex="1" parent="1">
          <mxGeometry x="240" y="490" width="100" height="40" as="geometry" />
        </mxCell>
        <mxCell id="wTuwIUQlhGzPRE3fNN9T-92" value="RATING" style="ellipse;whiteSpace=wrap;html=1;align=center;labelBackgroundColor=none;fillColor=#09555B;strokeColor=#BAC8D3;fontColor=#EEEEEE;" vertex="1" parent="1">
          <mxGeometry x="240" y="560" width="100" height="40" as="geometry" />
        </mxCell>
        <mxCell id="wTuwIUQlhGzPRE3fNN9T-93" value="" style="endArrow=none;html=1;rounded=0;entryX=1;entryY=0;entryDx=0;entryDy=0;exitX=0.25;exitY=1;exitDx=0;exitDy=0;labelBackgroundColor=none;fontColor=default;strokeColor=#0B4D6A;" edge="1" parent="1" source="wTuwIUQlhGzPRE3fNN9T-4" target="wTuwIUQlhGzPRE3fNN9T-91">
          <mxGeometry width="50" height="50" relative="1" as="geometry">
            <mxPoint x="400" y="440" as="sourcePoint" />
            <mxPoint x="450" y="390" as="targetPoint" />
          </mxGeometry>
        </mxCell>
        <mxCell id="wTuwIUQlhGzPRE3fNN9T-94" value="" style="endArrow=none;html=1;rounded=0;entryX=0.5;entryY=0;entryDx=0;entryDy=0;labelBackgroundColor=none;fontColor=default;strokeColor=#0B4D6A;" edge="1" parent="1" target="wTuwIUQlhGzPRE3fNN9T-90">
          <mxGeometry width="50" height="50" relative="1" as="geometry">
            <mxPoint x="410" y="460" as="sourcePoint" />
            <mxPoint x="450" y="390" as="targetPoint" />
          </mxGeometry>
        </mxCell>
        <mxCell id="wTuwIUQlhGzPRE3fNN9T-95" value="" style="endArrow=none;html=1;rounded=0;entryX=0.5;entryY=0;entryDx=0;entryDy=0;exitX=1;exitY=1;exitDx=0;exitDy=0;labelBackgroundColor=none;fontColor=default;strokeColor=#0B4D6A;" edge="1" parent="1" source="wTuwIUQlhGzPRE3fNN9T-4" target="wTuwIUQlhGzPRE3fNN9T-89">
          <mxGeometry width="50" height="50" relative="1" as="geometry">
            <mxPoint x="410" y="480" as="sourcePoint" />
            <mxPoint x="460" y="430" as="targetPoint" />
          </mxGeometry>
        </mxCell>
        <mxCell id="wTuwIUQlhGzPRE3fNN9T-96" value="" style="endArrow=none;html=1;rounded=0;entryX=1;entryY=0;entryDx=0;entryDy=0;exitX=0.5;exitY=1;exitDx=0;exitDy=0;labelBackgroundColor=none;fontColor=default;strokeColor=#0B4D6A;" edge="1" parent="1" source="wTuwIUQlhGzPRE3fNN9T-4" target="wTuwIUQlhGzPRE3fNN9T-92">
          <mxGeometry width="50" height="50" relative="1" as="geometry">
            <mxPoint x="410" y="480" as="sourcePoint" />
            <mxPoint x="460" y="430" as="targetPoint" />
          </mxGeometry>
        </mxCell>
        <mxCell id="wTuwIUQlhGzPRE3fNN9T-97" value="" style="endArrow=none;html=1;rounded=0;entryX=0.5;entryY=0;entryDx=0;entryDy=0;exitX=0.5;exitY=1;exitDx=0;exitDy=0;labelBackgroundColor=none;fontColor=default;strokeColor=#0B4D6A;" edge="1" parent="1" source="wTuwIUQlhGzPRE3fNN9T-4" target="wTuwIUQlhGzPRE3fNN9T-87">
          <mxGeometry width="50" height="50" relative="1" as="geometry">
            <mxPoint x="410" y="480" as="sourcePoint" />
            <mxPoint x="460" y="430" as="targetPoint" />
          </mxGeometry>
        </mxCell>
        <mxCell id="wTuwIUQlhGzPRE3fNN9T-98" value="" style="endArrow=none;html=1;rounded=0;entryX=1;entryY=1;entryDx=0;entryDy=0;exitX=0;exitY=1;exitDx=0;exitDy=0;labelBackgroundColor=none;fontColor=default;strokeColor=#0B4D6A;" edge="1" parent="1" source="wTuwIUQlhGzPRE3fNN9T-89" target="wTuwIUQlhGzPRE3fNN9T-89">
          <mxGeometry width="50" height="50" relative="1" as="geometry">
            <mxPoint x="350" y="470" as="sourcePoint" />
            <mxPoint x="400" y="420" as="targetPoint" />
          </mxGeometry>
        </mxCell>
        <mxCell id="wTuwIUQlhGzPRE3fNN9T-99" value="" style="endArrow=none;html=1;rounded=0;entryX=1;entryY=1;entryDx=0;entryDy=0;exitX=0;exitY=1;exitDx=0;exitDy=0;labelBackgroundColor=none;fontColor=default;strokeColor=#0B4D6A;" edge="1" parent="1" source="wTuwIUQlhGzPRE3fNN9T-90" target="wTuwIUQlhGzPRE3fNN9T-90">
          <mxGeometry width="50" height="50" relative="1" as="geometry">
            <mxPoint x="350" y="470" as="sourcePoint" />
            <mxPoint x="400" y="420" as="targetPoint" />
          </mxGeometry>
        </mxCell>
        <mxCell id="wTuwIUQlhGzPRE3fNN9T-100" value="BOOKID" style="ellipse;whiteSpace=wrap;html=1;align=center;fontStyle=4;labelBackgroundColor=none;fillColor=#09555B;strokeColor=#BAC8D3;fontColor=#EEEEEE;" vertex="1" parent="1">
          <mxGeometry x="470" y="120" width="100" height="40" as="geometry" />
        </mxCell>
        <mxCell id="wTuwIUQlhGzPRE3fNN9T-101" value="" style="endArrow=none;html=1;rounded=0;entryX=0;entryY=0.5;entryDx=0;entryDy=0;exitX=1;exitY=0.5;exitDx=0;exitDy=0;labelBackgroundColor=none;fontColor=default;strokeColor=#0B4D6A;" edge="1" parent="1" source="wTuwIUQlhGzPRE3fNN9T-2" target="wTuwIUQlhGzPRE3fNN9T-100">
          <mxGeometry width="50" height="50" relative="1" as="geometry">
            <mxPoint x="240" y="240" as="sourcePoint" />
            <mxPoint x="290" y="190" as="targetPoint" />
          </mxGeometry>
        </mxCell>
        <mxCell id="wTuwIUQlhGzPRE3fNN9T-102" value="SHELFLOCATION" style="ellipse;whiteSpace=wrap;html=1;align=center;labelBackgroundColor=none;fillColor=#09555B;strokeColor=#BAC8D3;fontColor=#EEEEEE;" vertex="1" parent="1">
          <mxGeometry x="470" y="180" width="120" height="40" as="geometry" />
        </mxCell>
        <mxCell id="wTuwIUQlhGzPRE3fNN9T-103" value="" style="endArrow=none;html=1;rounded=0;entryX=1;entryY=1;entryDx=0;entryDy=0;exitX=0;exitY=0.5;exitDx=0;exitDy=0;labelBackgroundColor=none;fontColor=default;strokeColor=#0B4D6A;" edge="1" parent="1" source="wTuwIUQlhGzPRE3fNN9T-102" target="wTuwIUQlhGzPRE3fNN9T-2">
          <mxGeometry width="50" height="50" relative="1" as="geometry">
            <mxPoint x="240" y="230" as="sourcePoint" />
            <mxPoint x="290" y="180" as="targetPoint" />
          </mxGeometry>
        </mxCell>
        <mxCell id="wTuwIUQlhGzPRE3fNN9T-106" value="&lt;span style=&quot;border-bottom: 1px dotted&quot;&gt;LIBRARY_ID&lt;/span&gt;" style="ellipse;whiteSpace=wrap;html=1;align=center;labelBackgroundColor=none;fillColor=#09555B;strokeColor=#BAC8D3;fontColor=#EEEEEE;" vertex="1" parent="1">
          <mxGeometry x="480" y="300" width="100" height="40" as="geometry" />
        </mxCell>
        <mxCell id="wTuwIUQlhGzPRE3fNN9T-108" value="" style="endArrow=none;html=1;rounded=0;entryX=1;entryY=1;entryDx=0;entryDy=0;exitX=0;exitY=1;exitDx=0;exitDy=0;labelBackgroundColor=none;fontColor=default;strokeColor=#0B4D6A;" edge="1" parent="1" source="wTuwIUQlhGzPRE3fNN9T-106" target="wTuwIUQlhGzPRE3fNN9T-106">
          <mxGeometry width="50" height="50" relative="1" as="geometry">
            <mxPoint x="350" y="140" as="sourcePoint" />
            <mxPoint x="400" y="90" as="targetPoint" />
          </mxGeometry>
        </mxCell>
        <mxCell id="wTuwIUQlhGzPRE3fNN9T-109" value="TITLE" style="ellipse;whiteSpace=wrap;html=1;align=center;labelBackgroundColor=none;fillColor=#09555B;strokeColor=#BAC8D3;fontColor=#EEEEEE;" vertex="1" parent="1">
          <mxGeometry x="490" y="230" width="100" height="40" as="geometry" />
        </mxCell>
        <mxCell id="wTuwIUQlhGzPRE3fNN9T-111" value="PRICE" style="ellipse;whiteSpace=wrap;html=1;align=center;labelBackgroundColor=none;fillColor=#09555B;strokeColor=#BAC8D3;fontColor=#EEEEEE;" vertex="1" parent="1">
          <mxGeometry x="200" y="50" width="100" height="40" as="geometry" />
        </mxCell>
        <mxCell id="wTuwIUQlhGzPRE3fNN9T-112" value="ISaVAILABLE" style="ellipse;whiteSpace=wrap;html=1;align=center;labelBackgroundColor=none;fillColor=#09555B;strokeColor=#BAC8D3;fontColor=#EEEEEE;" vertex="1" parent="1">
          <mxGeometry x="180" y="100" width="100" height="40" as="geometry" />
        </mxCell>
        <mxCell id="wTuwIUQlhGzPRE3fNN9T-113" value="" style="endArrow=none;html=1;rounded=0;exitX=1;exitY=0.5;exitDx=0;exitDy=0;entryX=0.25;entryY=0;entryDx=0;entryDy=0;labelBackgroundColor=none;fontColor=default;strokeColor=#0B4D6A;" edge="1" parent="1" source="wTuwIUQlhGzPRE3fNN9T-111" target="wTuwIUQlhGzPRE3fNN9T-2">
          <mxGeometry width="50" height="50" relative="1" as="geometry">
            <mxPoint x="330" y="90" as="sourcePoint" />
            <mxPoint x="380" y="40" as="targetPoint" />
          </mxGeometry>
        </mxCell>
        <mxCell id="wTuwIUQlhGzPRE3fNN9T-114" value="" style="endArrow=none;html=1;rounded=0;entryX=1;entryY=0.5;entryDx=0;entryDy=0;exitX=0;exitY=0.25;exitDx=0;exitDy=0;labelBackgroundColor=none;fontColor=default;strokeColor=#0B4D6A;" edge="1" parent="1" source="wTuwIUQlhGzPRE3fNN9T-2" target="wTuwIUQlhGzPRE3fNN9T-112">
          <mxGeometry width="50" height="50" relative="1" as="geometry">
            <mxPoint x="330" y="90" as="sourcePoint" />
            <mxPoint x="380" y="40" as="targetPoint" />
          </mxGeometry>
        </mxCell>
        <mxCell id="wTuwIUQlhGzPRE3fNN9T-115" value="" style="endArrow=none;html=1;rounded=0;entryX=0;entryY=1;entryDx=0;entryDy=0;exitX=0.75;exitY=0;exitDx=0;exitDy=0;labelBackgroundColor=none;fontColor=default;strokeColor=#0B4D6A;" edge="1" parent="1" source="wTuwIUQlhGzPRE3fNN9T-2">
          <mxGeometry width="50" height="50" relative="1" as="geometry">
            <mxPoint x="330" y="90" as="sourcePoint" />
            <mxPoint x="464.8322184796607" y="84.21676274226456" as="targetPoint" />
          </mxGeometry>
        </mxCell>
        <mxCell id="wTuwIUQlhGzPRE3fNN9T-116" value="" style="endArrow=none;html=1;rounded=0;entryX=0;entryY=0.5;entryDx=0;entryDy=0;exitX=0.75;exitY=1;exitDx=0;exitDy=0;labelBackgroundColor=none;fontColor=default;strokeColor=#0B4D6A;" edge="1" parent="1" source="wTuwIUQlhGzPRE3fNN9T-2" target="wTuwIUQlhGzPRE3fNN9T-109">
          <mxGeometry width="50" height="50" relative="1" as="geometry">
            <mxPoint x="330" y="90" as="sourcePoint" />
            <mxPoint x="380" y="40" as="targetPoint" />
          </mxGeometry>
        </mxCell>
        <mxCell id="wTuwIUQlhGzPRE3fNN9T-117" value="ISBN" style="ellipse;whiteSpace=wrap;html=1;align=center;labelBackgroundColor=none;fillColor=#09555B;strokeColor=#BAC8D3;fontColor=#EEEEEE;" vertex="1" parent="1">
          <mxGeometry x="200" y="150" width="100" height="40" as="geometry" />
        </mxCell>
        <mxCell id="wTuwIUQlhGzPRE3fNN9T-118" value="" style="endArrow=none;html=1;rounded=0;exitX=1;exitY=0.5;exitDx=0;exitDy=0;entryX=0;entryY=1;entryDx=0;entryDy=0;labelBackgroundColor=none;fontColor=default;strokeColor=#0B4D6A;" edge="1" parent="1" source="wTuwIUQlhGzPRE3fNN9T-117" target="wTuwIUQlhGzPRE3fNN9T-2">
          <mxGeometry width="50" height="50" relative="1" as="geometry">
            <mxPoint x="340" y="110" as="sourcePoint" />
            <mxPoint x="390" y="60" as="targetPoint" />
          </mxGeometry>
        </mxCell>
        <mxCell id="wTuwIUQlhGzPRE3fNN9T-119" value="LIBRARY_ID" style="ellipse;whiteSpace=wrap;html=1;align=center;fontStyle=4;labelBackgroundColor=none;fillColor=#09555B;strokeColor=#BAC8D3;fontColor=#EEEEEE;" vertex="1" parent="1">
          <mxGeometry x="350" y="-480" width="100" height="40" as="geometry" />
        </mxCell>
        <mxCell id="wTuwIUQlhGzPRE3fNN9T-120" value="CONTACTNUMBER" style="ellipse;whiteSpace=wrap;html=1;align=center;labelBackgroundColor=none;fillColor=#09555B;strokeColor=#BAC8D3;fontColor=#EEEEEE;" vertex="1" parent="1">
          <mxGeometry x="190" y="-340" width="130" height="50" as="geometry" />
        </mxCell>
        <mxCell id="wTuwIUQlhGzPRE3fNN9T-121" value="LOCATION" style="ellipse;whiteSpace=wrap;html=1;align=center;labelBackgroundColor=none;fillColor=#09555B;strokeColor=#BAC8D3;fontColor=#EEEEEE;" vertex="1" parent="1">
          <mxGeometry x="440" y="-360" width="100" height="40" as="geometry" />
        </mxCell>
        <mxCell id="wTuwIUQlhGzPRE3fNN9T-122" value="NAME" style="ellipse;whiteSpace=wrap;html=1;align=center;labelBackgroundColor=none;fillColor=#09555B;strokeColor=#BAC8D3;fontColor=#EEEEEE;" vertex="1" parent="1">
          <mxGeometry x="260" y="-400" width="100" height="40" as="geometry" />
        </mxCell>
        <mxCell id="wTuwIUQlhGzPRE3fNN9T-124" value="ESTABLISHEDYEAR" style="ellipse;whiteSpace=wrap;html=1;align=center;labelBackgroundColor=none;fillColor=#09555B;strokeColor=#BAC8D3;fontColor=#EEEEEE;" vertex="1" parent="1">
          <mxGeometry x="220" y="-270" width="130" height="50" as="geometry" />
        </mxCell>
        <mxCell id="wTuwIUQlhGzPRE3fNN9T-125" value="" style="endArrow=none;html=1;rounded=0;entryX=0.5;entryY=1;entryDx=0;entryDy=0;exitX=0.5;exitY=0;exitDx=0;exitDy=0;labelBackgroundColor=none;fontColor=default;strokeColor=#0B4D6A;" edge="1" parent="1" source="wTuwIUQlhGzPRE3fNN9T-1" target="wTuwIUQlhGzPRE3fNN9T-119">
          <mxGeometry width="50" height="50" relative="1" as="geometry">
            <mxPoint x="390" y="10" as="sourcePoint" />
            <mxPoint x="440" y="-40" as="targetPoint" />
          </mxGeometry>
        </mxCell>
        <mxCell id="wTuwIUQlhGzPRE3fNN9T-126" value="" style="endArrow=none;html=1;rounded=0;entryX=1;entryY=1;entryDx=0;entryDy=0;exitX=0.25;exitY=0;exitDx=0;exitDy=0;labelBackgroundColor=none;fontColor=default;strokeColor=#0B4D6A;" edge="1" parent="1" source="wTuwIUQlhGzPRE3fNN9T-1" target="wTuwIUQlhGzPRE3fNN9T-124">
          <mxGeometry width="50" height="50" relative="1" as="geometry">
            <mxPoint x="390" y="10" as="sourcePoint" />
            <mxPoint x="440" y="-40" as="targetPoint" />
          </mxGeometry>
        </mxCell>
        <mxCell id="wTuwIUQlhGzPRE3fNN9T-127" value="" style="endArrow=none;html=1;rounded=0;entryX=1;entryY=0.5;entryDx=0;entryDy=0;exitX=0.5;exitY=0;exitDx=0;exitDy=0;labelBackgroundColor=none;fontColor=default;strokeColor=#0B4D6A;" edge="1" parent="1" source="wTuwIUQlhGzPRE3fNN9T-1" target="wTuwIUQlhGzPRE3fNN9T-120">
          <mxGeometry width="50" height="50" relative="1" as="geometry">
            <mxPoint x="390" y="10" as="sourcePoint" />
            <mxPoint x="440" y="-40" as="targetPoint" />
          </mxGeometry>
        </mxCell>
        <mxCell id="wTuwIUQlhGzPRE3fNN9T-128" value="" style="endArrow=none;html=1;rounded=0;entryX=1;entryY=1;entryDx=0;entryDy=0;exitX=1;exitY=0;exitDx=0;exitDy=0;labelBackgroundColor=none;fontColor=default;strokeColor=#0B4D6A;" edge="1" parent="1" source="wTuwIUQlhGzPRE3fNN9T-1" target="wTuwIUQlhGzPRE3fNN9T-121">
          <mxGeometry width="50" height="50" relative="1" as="geometry">
            <mxPoint x="390" y="10" as="sourcePoint" />
            <mxPoint x="440" y="-40" as="targetPoint" />
          </mxGeometry>
        </mxCell>
        <mxCell id="wTuwIUQlhGzPRE3fNN9T-129" value="" style="endArrow=none;html=1;rounded=0;entryX=1;entryY=1;entryDx=0;entryDy=0;exitX=0.75;exitY=0;exitDx=0;exitDy=0;labelBackgroundColor=none;fontColor=default;strokeColor=#0B4D6A;" edge="1" parent="1" source="wTuwIUQlhGzPRE3fNN9T-1" target="wTuwIUQlhGzPRE3fNN9T-122">
          <mxGeometry width="50" height="50" relative="1" as="geometry">
            <mxPoint x="390" y="10" as="sourcePoint" />
            <mxPoint x="440" y="-40" as="targetPoint" />
          </mxGeometry>
        </mxCell>
        <mxCell id="wTuwIUQlhGzPRE3fNN9T-130" value="STAFF_ID" style="ellipse;whiteSpace=wrap;html=1;align=center;fontStyle=4;labelBackgroundColor=none;fillColor=#09555B;strokeColor=#BAC8D3;fontColor=#EEEEEE;" vertex="1" parent="1">
          <mxGeometry x="870" y="150" width="100" height="40" as="geometry" />
        </mxCell>
        <mxCell id="wTuwIUQlhGzPRE3fNN9T-131" value="&lt;span style=&quot;border-bottom: 1px dotted&quot;&gt;LIBRARY_ID&lt;/span&gt;" style="ellipse;whiteSpace=wrap;html=1;align=center;labelBackgroundColor=none;fillColor=#09555B;strokeColor=#BAC8D3;fontColor=#EEEEEE;" vertex="1" parent="1">
          <mxGeometry x="930" y="90" width="100" height="40" as="geometry" />
        </mxCell>
        <mxCell id="wTuwIUQlhGzPRE3fNN9T-132" value="FULLNAME" style="ellipse;whiteSpace=wrap;html=1;align=center;labelBackgroundColor=none;fillColor=#09555B;strokeColor=#BAC8D3;fontColor=#EEEEEE;" vertex="1" parent="1">
          <mxGeometry x="790" y="60" width="100" height="40" as="geometry" />
        </mxCell>
        <mxCell id="wTuwIUQlhGzPRE3fNN9T-133" value="POSITION" style="ellipse;whiteSpace=wrap;html=1;align=center;labelBackgroundColor=none;fillColor=#09555B;strokeColor=#BAC8D3;fontColor=#EEEEEE;" vertex="1" parent="1">
          <mxGeometry x="780" y="230" width="100" height="40" as="geometry" />
        </mxCell>
        <mxCell id="wTuwIUQlhGzPRE3fNN9T-134" value="CONTACTNUMBER" style="ellipse;whiteSpace=wrap;html=1;align=center;labelBackgroundColor=none;fillColor=#09555B;strokeColor=#BAC8D3;fontColor=#EEEEEE;" vertex="1" parent="1">
          <mxGeometry x="970" y="220" width="120" height="50" as="geometry" />
        </mxCell>
        <mxCell id="wTuwIUQlhGzPRE3fNN9T-136" value="" style="endArrow=none;html=1;rounded=0;entryX=1;entryY=1;entryDx=0;entryDy=0;exitX=0;exitY=1;exitDx=0;exitDy=0;labelBackgroundColor=none;fontColor=default;strokeColor=#0B4D6A;" edge="1" parent="1" source="wTuwIUQlhGzPRE3fNN9T-131" target="wTuwIUQlhGzPRE3fNN9T-131">
          <mxGeometry width="50" height="50" relative="1" as="geometry">
            <mxPoint x="390" y="10" as="sourcePoint" />
            <mxPoint x="440" y="-40" as="targetPoint" />
          </mxGeometry>
        </mxCell>
        <mxCell id="wTuwIUQlhGzPRE3fNN9T-137" value="" style="endArrow=none;html=1;rounded=0;exitX=0;exitY=0.5;exitDx=0;exitDy=0;entryX=1;entryY=0.75;entryDx=0;entryDy=0;labelBackgroundColor=none;fontColor=default;strokeColor=#0B4D6A;" edge="1" parent="1" source="wTuwIUQlhGzPRE3fNN9T-130" target="wTuwIUQlhGzPRE3fNN9T-3">
          <mxGeometry width="50" height="50" relative="1" as="geometry">
            <mxPoint x="730" y="110" as="sourcePoint" />
            <mxPoint x="780" y="60" as="targetPoint" />
          </mxGeometry>
        </mxCell>
        <mxCell id="wTuwIUQlhGzPRE3fNN9T-138" value="" style="endArrow=none;html=1;rounded=0;entryX=0.5;entryY=1;entryDx=0;entryDy=0;exitX=1;exitY=0;exitDx=0;exitDy=0;labelBackgroundColor=none;fontColor=default;strokeColor=#0B4D6A;" edge="1" parent="1" source="wTuwIUQlhGzPRE3fNN9T-3" target="wTuwIUQlhGzPRE3fNN9T-132">
          <mxGeometry width="50" height="50" relative="1" as="geometry">
            <mxPoint x="730" y="110" as="sourcePoint" />
            <mxPoint x="780" y="60" as="targetPoint" />
          </mxGeometry>
        </mxCell>
        <mxCell id="wTuwIUQlhGzPRE3fNN9T-139" value="" style="endArrow=none;html=1;rounded=0;entryX=0.5;entryY=0;entryDx=0;entryDy=0;exitX=0.75;exitY=1;exitDx=0;exitDy=0;labelBackgroundColor=none;fontColor=default;strokeColor=#0B4D6A;" edge="1" parent="1" source="wTuwIUQlhGzPRE3fNN9T-3" target="wTuwIUQlhGzPRE3fNN9T-133">
          <mxGeometry width="50" height="50" relative="1" as="geometry">
            <mxPoint x="730" y="110" as="sourcePoint" />
            <mxPoint x="780" y="60" as="targetPoint" />
          </mxGeometry>
        </mxCell>
        <mxCell id="wTuwIUQlhGzPRE3fNN9T-140" value="" style="endArrow=none;html=1;rounded=0;entryX=0;entryY=0.5;entryDx=0;entryDy=0;exitX=1;exitY=1;exitDx=0;exitDy=0;labelBackgroundColor=none;fontColor=default;strokeColor=#0B4D6A;" edge="1" parent="1" source="wTuwIUQlhGzPRE3fNN9T-3" target="wTuwIUQlhGzPRE3fNN9T-134">
          <mxGeometry width="50" height="50" relative="1" as="geometry">
            <mxPoint x="730" y="110" as="sourcePoint" />
            <mxPoint x="780" y="60" as="targetPoint" />
          </mxGeometry>
        </mxCell>
        <mxCell id="wTuwIUQlhGzPRE3fNN9T-141" value="" style="endArrow=none;html=1;rounded=0;entryX=0;entryY=0.5;entryDx=0;entryDy=0;exitX=1;exitY=0.25;exitDx=0;exitDy=0;labelBackgroundColor=none;fontColor=default;strokeColor=#0B4D6A;" edge="1" parent="1" source="wTuwIUQlhGzPRE3fNN9T-3" target="wTuwIUQlhGzPRE3fNN9T-131">
          <mxGeometry width="50" height="50" relative="1" as="geometry">
            <mxPoint x="730" y="110" as="sourcePoint" />
            <mxPoint x="780" y="60" as="targetPoint" />
          </mxGeometry>
        </mxCell>
        <mxCell id="wTuwIUQlhGzPRE3fNN9T-142" value="AMOUNT" style="ellipse;whiteSpace=wrap;html=1;align=center;dashed=1;labelBackgroundColor=none;fillColor=#09555B;strokeColor=#BAC8D3;fontColor=#EEEEEE;" vertex="1" parent="1">
          <mxGeometry x="-250" y="860" width="100" height="40" as="geometry" />
        </mxCell>
        <mxCell id="wTuwIUQlhGzPRE3fNN9T-143" value="GENRE" style="ellipse;shape=doubleEllipse;margin=3;whiteSpace=wrap;html=1;align=center;labelBackgroundColor=none;fillColor=#09555B;strokeColor=#BAC8D3;fontColor=#EEEEEE;" vertex="1" parent="1">
          <mxGeometry x="440" y="50" width="100" height="40" as="geometry" />
        </mxCell>
      </root>
    </mxGraphModel>
  </diagram>
</mxfile>
